<svg width="252" height="252" viewBox="0 0 252 252" fill="none" xmlns="http://www.w3.org/2000/svg">
<g opacity="0.9" clip-path="url(#clip0)">
<path d="M188.76 40.0269H218.591C221.031 40.0269 223.01 42.0055 223.01 44.4462V169.148H184.34V44.4462C184.34 42.0055 186.319 40.0269 188.76 40.0269Z" fill="#037E73"/>
<path d="M39.198 228.914C33.6102 228.914 29.0801 224.384 29.0801 218.796V201.577H49.3159V218.796C49.3159 224.384 44.7863 228.914 39.198 228.914Z" fill="#7C4B37"/>
<path d="M213.471 228.914C207.884 228.914 203.354 224.384 203.354 218.796V201.577H223.589V218.796C223.589 224.384 219.06 228.914 213.471 228.914Z" fill="#7C4B37"/>
<path d="M145.67 169.148H107V27.5048C107 25.064 108.979 23.0854 111.419 23.0854H141.25C143.691 23.0854 145.67 25.064 145.67 27.5048V169.148Z" fill="#E53950"/>
<path d="M107 169.148H68.3301V27.5048C68.3301 25.064 70.3087 23.0854 72.7494 23.0854H102.58C105.021 23.0854 107 25.064 107 27.5048V169.148H107Z" fill="#0078C8"/>
<path d="M68.3301 51.5078H107V70.4088H68.3301V51.5078Z" fill="#7BACDF"/>
<path d="M68.3299 169.148H29.6602V27.5048C29.6602 25.064 31.6387 23.0854 34.0795 23.0854H63.9105C66.3513 23.0854 68.3299 25.064 68.3299 27.5048V169.148Z" fill="#FEC165"/>
<path d="M150.088 40.0269H179.919C182.36 40.0269 184.338 42.0055 184.338 44.4462V169.148H145.668V44.4462C145.668 42.0055 147.647 40.0269 150.088 40.0269Z" fill="#0078C8"/>
<path d="M247.436 205.26H4.56356C2.04307 205.26 0 203.217 0 200.697V173.712C0 171.191 2.04307 169.148 4.56356 169.148H247.437C249.957 169.148 252 171.191 252 173.712V200.697C252 203.217 249.957 205.26 247.436 205.26Z" fill="#AA6A51"/>
<path d="M247.437 169.148H227.314C229.835 169.148 231.878 171.192 231.878 173.712V200.697C231.878 203.218 229.835 205.261 227.314 205.261H247.437C249.957 205.261 252 203.218 252 200.697V173.712C252 171.192 249.957 169.148 247.437 169.148Z" fill="#935B44"/>
<path d="M63.9093 23.0854H46.6621C49.1029 23.0854 51.0815 25.064 51.0815 27.5048V169.148H68.3292V27.5048C68.3287 25.064 66.3501 23.0854 63.9093 23.0854Z" fill="#FDB441"/>
<path d="M179.921 40.0269H162.674C165.115 40.0269 167.093 42.0055 167.093 44.4462V169.148H184.34V44.4462C184.34 42.0055 182.362 40.0269 179.921 40.0269Z" fill="#0268B4"/>
<path d="M218.591 40.0269H201.344C203.785 40.0269 205.763 42.0055 205.763 44.4462V169.148H223.01V44.4462C223.01 42.0055 221.032 40.0269 218.591 40.0269Z" fill="#006E66"/>
<path d="M141.249 23.0854H124.002C126.443 23.0854 128.421 25.064 128.421 27.5048V169.148H145.669V27.5048C145.669 25.064 143.69 23.0854 141.249 23.0854Z" fill="#CA2E43"/>
<path d="M107 51.5078H145.67V70.4088H107V51.5078Z" fill="#FEE8C7"/>
<path d="M128.422 51.5078H145.67V70.4088H128.422V51.5078Z" fill="#FEDBA6"/>
<path d="M184.34 144.023H145.67V127.314H184.34V144.023Z" fill="#7BACDF"/>
<path d="M167.092 127.314H184.339V144.023H167.092V127.314Z" fill="#5F99D7"/>
<path d="M223.01 144.023H184.34V127.314H223.01V144.023Z" fill="#0AB69F"/>
<path d="M205.762 127.314H223.009V144.023H205.762V127.314Z" fill="#01998D"/>
<path d="M102.579 23.0854H85.332C87.7728 23.0854 89.7514 25.064 89.7514 27.5048V169.148H106.999V27.5048C106.999 25.064 105.02 23.0854 102.579 23.0854Z" fill="#0268B4"/>
<path d="M89.752 51.5078H106.999V70.4088H89.752V51.5078Z" fill="#5F99D7"/>
<path d="M29.6602 51.5078H68.3303V70.4088H29.6602V51.5078Z" fill="#FEE8C7"/>
<path d="M51.082 51.5078H68.3298V70.4088H51.082V51.5078Z" fill="#FEDBA6"/>
</g>
<defs>
<clipPath id="clip0">
<rect width="252" height="252" fill="white"/>
</clipPath>
</defs>
</svg>
