<svg width="240" height="240" viewBox="0 0 240 240" fill="none" xmlns="http://www.w3.org/2000/svg">
<g opacity="0.9" clip-path="url(#clip0)">
<path d="M7.83594 45.2983H188.897V95.6738H7.83594V45.2983Z" fill="#FFDA45"/>
<path d="M168.709 45.2983H188.898V95.6738H168.709V45.2983Z" fill="#FAC800"/>
<path d="M111.664 45.2983H168.945V95.6738H111.664V45.2983Z" fill="#FFF5F5"/>
<path d="M226.382 236.478H46.7153C32.0214 236.478 20.1094 224.566 20.1094 209.872C20.1094 195.179 32.0214 183.267 46.7153 183.267H226.382V236.478Z" fill="#F0F5FA"/>
<path d="M207.602 183.267H226.382V236.478H207.602V183.267Z" fill="#E4ECF2"/>
<path d="M235.772 240H46.7151C30.1033 240 16.5879 226.485 16.5879 209.872C16.5879 193.26 30.1028 179.745 46.7151 179.745H235.773C237.717 179.745 239.294 181.322 239.294 183.266C239.294 185.211 237.717 186.788 235.773 186.788H46.7151C33.9866 186.788 23.6306 197.143 23.6306 209.872C23.6306 222.601 33.9862 232.957 46.7151 232.957H235.773C237.717 232.957 239.294 234.534 239.294 236.478C239.294 238.423 237.717 240 235.772 240Z" fill="#6E9EFF"/>
<path d="M226.382 204.526H81.3456C79.4008 204.526 77.8242 202.949 77.8242 201.004C77.8242 199.06 79.4008 197.483 81.3456 197.483H226.382V204.526Z" fill="#C5D7E6"/>
<path d="M226.383 222.263H119.855C117.911 222.263 116.334 220.686 116.334 218.742C116.334 216.797 117.911 215.22 119.855 215.22H226.383V222.263Z" fill="#C5D7E6"/>
<path d="M196.268 176.244H21.4435C11.934 176.244 4.22461 168.535 4.22461 159.025C4.22461 149.516 11.9335 141.806 21.4435 141.806H196.269V176.244H196.268Z" fill="#F0F5FA"/>
<path d="M177.486 141.806H196.267V176.244H177.486V141.806Z" fill="#E4ECF2"/>
<path d="M207.04 179.766H21.4434C10.0075 179.766 0.703125 170.462 0.703125 159.025C0.703125 147.589 10.007 138.285 21.4434 138.285H207.04C208.985 138.285 210.562 139.862 210.562 141.807C210.562 143.751 208.985 145.328 207.04 145.328H21.4434C13.8908 145.328 7.74582 151.472 7.74582 159.025C7.74582 166.578 13.8903 172.723 21.4434 172.723H207.04C208.985 172.723 210.562 174.3 210.562 176.244C210.562 178.189 208.985 179.766 207.04 179.766Z" fill="#74D84B"/>
<path d="M196.267 163.278H146.82C144.875 163.278 143.299 161.701 143.299 159.757C143.299 157.812 144.875 156.235 146.82 156.235H196.267V163.278Z" fill="#C5D7E6"/>
<path d="M62.4648 3.521H202.788C213.352 3.521 221.916 12.0849 221.916 22.6485C221.916 33.2125 213.352 41.776 202.788 41.776H62.4648V3.521Z" fill="#F0F5FA"/>
<path d="M202.788 3.521H184.008C194.572 3.521 203.135 12.0849 203.135 22.6485C203.135 33.2125 194.571 41.776 184.008 41.776H202.788C213.352 41.776 221.916 33.2121 221.916 22.6485C221.916 12.0849 213.352 3.521 202.788 3.521Z" fill="#E4ECF2"/>
<path d="M202.788 45.2981H50.4979C48.5532 45.2981 46.9766 43.7215 46.9766 41.7768C46.9766 39.8321 48.5532 38.2554 50.4979 38.2554H202.788C211.393 38.2554 218.394 31.2545 218.394 22.6493C218.394 14.0441 211.393 7.0427 202.788 7.0427H50.4979C48.5532 7.0427 46.9766 5.46607 46.9766 3.52135C46.9766 1.57662 48.5532 0 50.4979 0H202.788C215.276 0 225.437 10.1603 225.437 22.6488C225.437 35.1374 215.276 45.2981 202.788 45.2981Z" fill="#FC435F"/>
<path d="M28.2168 95.6733H237.574V138.285H28.2168V95.6733Z" fill="#6E9EFF"/>
<path d="M173.641 95.6733H237.573V138.285H173.641V95.6733Z" fill="#BF6930"/>
<path d="M218.793 95.6733H237.573V138.285H218.793V95.6733Z" fill="#AD5F2C"/>
<path d="M100.24 124.022H52.3454C48.456 124.022 45.3027 120.869 45.3027 116.979C45.3027 113.09 48.456 109.937 52.3454 109.937H100.24C104.129 109.937 107.283 113.09 107.283 116.979C107.283 120.869 104.129 124.022 100.24 124.022Z" fill="#FFF5F5"/>
<path d="M217.228 120.501H194.301C192.356 120.501 190.779 118.924 190.779 116.979C190.779 115.035 192.356 113.458 194.301 113.458H217.228C219.173 113.458 220.75 115.035 220.75 116.979C220.75 118.924 219.174 120.501 217.228 120.501Z" fill="#FFF5F5"/>
<path d="M153.139 78.3882C151.194 78.3882 149.617 76.8116 149.617 74.8669V66.1048C149.617 64.1601 151.194 62.5835 153.139 62.5835C155.083 62.5835 156.66 64.1601 156.66 66.1048V74.8669C156.66 76.8116 155.084 78.3882 153.139 78.3882Z" fill="#677A8F"/>
<path d="M140.307 78.3882C138.362 78.3882 136.785 76.8116 136.785 74.8669V66.1048C136.785 64.1601 138.362 62.5835 140.307 62.5835C142.251 62.5835 143.828 64.1601 143.828 66.1048V74.8669C143.828 76.8116 142.252 78.3882 140.307 78.3882Z" fill="#677A8F"/>
<path d="M127.473 78.3882C125.528 78.3882 123.951 76.8116 123.951 74.8669V66.1048C123.951 64.1601 125.528 62.5835 127.473 62.5835C129.417 62.5835 130.994 64.1601 130.994 66.1048V74.8669C130.994 76.8116 129.417 78.3882 127.473 78.3882Z" fill="#677A8F"/>
<path d="M62.3672 19.1274H142.719C144.663 19.1274 146.24 20.7041 146.24 22.6488C146.24 24.5935 144.663 26.1701 142.719 26.1701H62.3672V19.1274Z" fill="#C5D7E6"/>
</g>
<defs>
<clipPath id="clip0">
<rect width="240" height="240" fill="white"/>
</clipPath>
</defs>
</svg>
