<svg width="152" height="71" viewBox="0 0 152 71" fill="none" xmlns="http://www.w3.org/2000/svg">
<circle cx="35.5" cy="35.5" r="35.5" fill="#6868FF"/>
<path d="M33.6572 42.6465H44.6309V46H29.457V21.8281H33.6572V42.6465Z" fill="white"/>
<path d="M86.5781 26.9375L91.5 40.0156L96.4102 26.9375H100.242V44H97.2891V38.375L97.582 30.8516L92.543 44H90.4219L85.3945 30.8633L85.6875 38.375V44H82.7344V26.9375H86.5781ZM108.996 35.0234L112.922 26.9375H116.203L110.484 37.7188V44H107.508V37.7188L101.777 26.9375H105.07L108.996 35.0234ZM134.168 44H131.215V26.9375H134.168V44ZM137.812 44V26.9375H143.66C145.59 26.9375 147.059 27.3242 148.066 28.0977C149.074 28.8711 149.578 30.0234 149.578 31.5547C149.578 32.3359 149.367 33.0391 148.945 33.6641C148.523 34.2891 147.906 34.7734 147.094 35.1172C148.016 35.3672 148.727 35.8398 149.227 36.5352C149.734 37.2227 149.988 38.0508 149.988 39.0195C149.988 40.6211 149.473 41.8516 148.441 42.7109C147.418 43.5703 145.949 44 144.035 44H137.812ZM140.777 36.3008V41.6328H144.07C145 41.6328 145.727 41.4023 146.25 40.9414C146.773 40.4805 147.035 39.8398 147.035 39.0195C147.035 37.2461 146.129 36.3398 144.316 36.3008H140.777ZM140.777 34.1211H143.684C144.605 34.1211 145.324 33.9141 145.84 33.5C146.363 33.0781 146.625 32.4844 146.625 31.7188C146.625 30.875 146.383 30.2656 145.898 29.8906C145.422 29.5156 144.676 29.3281 143.66 29.3281H140.777V34.1211Z" fill="#3D3D4D"/>
<path d="M121.02 41.6328H128.766V44H118.055V26.9375H121.02V41.6328Z" fill="#6868FF"/>
</svg>
